<?xml version="1.0" encoding="utf-8"?>
<!-- Svg Vector Icons : http://www.onlinewebfonts.com/icon -->
<!DOCTYPE svg PUBLIC "-//W3C//DTD SVG 1.1//EN" "http://www.w3.org/Graphics/SVG/1.1/DTD/svg11.dtd">
<svg version="1.1" xmlns="http://www.w3.org/2000/svg" xmlns:xlink="http://www.w3.org/1999/xlink" x="0px" y="0px" viewBox="0 0 1000 1000" enable-background="new 0 0 1000 1000" xml:space="preserve">
<metadata> Svg Vector Icons : http://www.onlinewebfonts.com/icon </metadata>
<g><path d="M163.1,359.4c0,42.3,34.3,76.6,76.6,76.6c42.3,0,76.6-34.3,76.6-76.6c0-42.3-34.3-76.6-76.6-76.6C197.4,282.9,163.1,317.1,163.1,359.4L163.1,359.4z"/><path d="M989.9,605.7V252.2c0-67.4-55.1-122.5-122.5-122.5H132.5C65.1,129.7,10,184.9,10,252.2v489.9c0,46.3,26,86.8,64.1,107.6c18.4,13.6,41.1,20.5,67.7,20.5c19.1,0,137.7-0.4,273.5-0.8c181.9-0.6,394.6-1.2,440.6-1.2c19.6,0,36.6-4.1,51.4-10.4c34.3-11.9,61.8-38.7,74.6-72.6c4.1-7.9,6.3-13.6,6.7-14.5l1.5-3.9V606L989.9,605.7z M943.1,750.4c-0.5,4.2-1.2,8.3-2.4,12.3c-7.4,14.6-26.2,44.1-59.6,54.6c-4.5,0.8-9.1,1.4-13.7,1.4H132.5c-10,0-19.8-2-28.8-5.7c-3.8-2.6-7.3-5.5-10.5-9.1c-21.6-24.5-24.5-68.8-23.4-93.7l340.5-185.4l163.6,101.3l236.4-248.4l132.9,240.3V750.4z M943.9,522.7L820.3,299.2L566.1,566.2l-154.4-95.6L55.9,664.4V252.2c0-20.3,8-39.5,22.5-54c14.5-14.5,33.7-22.5,54-22.5h734.9v0c20.3,0,39.5,8,54,22.5c14.5,14.5,22.5,33.7,22.5,54V522.7z"/></g>
</svg>